{
    "asset": {
        "generator": "COLLADA2GLTF",
        "version": "2.0"
    },
    "scenes": [
        {
            "nodes": [
                0
            ]
        }
    ],
    "scene": 0,
    "nodes": [
        {
            "children": [
                1
            ],
            "matrix": [
                1.0,
                0.0,
                0.0,
                0.0,
                0.0,
                0.0,
                -1.0,
                0.0,
                0.0,
                1.0,
                0.0,
                0.0,
                0.0,
                0.0,
                0.0,
                1.0
            ],
            "name": "Z_UP"
        },
        {
            "mesh": 0,
            "name": "Orange"
        }
    ],
    "meshes": [
        {
            "primitives": [
                {
                    "attributes": {
                        "NORMAL": 1,
                        "POSITION": 2,
                        "TEXCOORD_0": 3
                    },
                    "indices": 0,
                    "mode": 4,
                    "material": 0
                },
                {
                    "attributes": {
                        "NORMAL": 5,
                        "POSITION": 6,
                        "TEXCOORD_0": 7
                    },
                    "indices": 4,
                    "mode": 4,
                    "material": 1
                }
            ],
            "name": "Orange"
        }
    ],
    "accessors": [
        {
            "bufferView": 0,
            "byteOffset": 0,
            "componentType": 5123,
            "count": 5568,
            "max": [
                703
            ],
            "min": [
                0
            ],
            "type": "SCALAR"
        },
        {
            "bufferView": 1,
            "byteOffset": 0,
            "componentType": 5126,
            "count": 704,
            "max": [
                1.0,
                0.999969482421875,
                0.99981689453125
            ],
            "min": [
                -1.0,
                -0.999969482421875,
                -0.9960631132125856
            ],
            "type": "VEC3"
        },
        {
            "bufferView": 1,
            "byteOffset": 8448,
            "componentType": 5126,
            "count": 704,
            "max": [
                1.0,
                1.0,
                0.988046407699585
            ],
            "min": [
                -1.0,
                -0.999999701976776,
                -0.9751026034355164
            ],
            "type": "VEC3"
        },
        {
            "bufferView": 2,
            "byteOffset": 0,
            "componentType": 5126,
            "count": 704,
            "max": [
                1.0,
                1.0
            ],
            "min": [
                0.0,
                0.0
            ],
            "type": "VEC2"
        },
        {
            "bufferView": 0,
            "byteOffset": 11136,
            "componentType": 5123,
            "count": 1056,
            "max": [
                161
            ],
            "min": [
                0
            ],
            "type": "SCALAR"
        },
        {
            "bufferView": 1,
            "byteOffset": 16896,
            "componentType": 5126,
            "count": 162,
            "max": [
                0.9790948033332824,
                0.9788507223129273,
                0.99981689453125
            ],
            "min": [
                -0.9786676168441773,
                -0.9781793355941773,
                -1.0
            ],
            "type": "VEC3"
        },
        {
            "bufferView": 1,
            "byteOffset": 18840,
            "componentType": 5126,
            "count": 162,
            "max": [
                0.04014860838651657,
                0.03939855098724365,
                0.9736210107803344
            ],
            "min": [
                -0.03755377978086472,
                -0.03830384835600853,
                -0.9611390233039856
            ],
            "type": "VEC3"
        },
        {
            "bufferView": 2,
            "byteOffset": 5632,
            "componentType": 5126,
            "count": 162,
            "max": [
                0.7043098211288452,
                0.361336886882782
            ],
            "min": [
                0.06838583201169968,
                0.08139389753341675
            ],
            "type": "VEC2"
        }
    ],
    "materials": [
        {
            "pbrMetallicRoughness": {
                "baseColorTexture": {
                    "index": 0
                },
                "metallicFactor": 0.0
            },
            "emissiveFactor": [
                0.0,
                0.0,
                0.0
            ],
            "normalTexture": {
                "index": 1
            },
            "name": "Skin-effect"
        },
        {
            "pbrMetallicRoughness": {
                "baseColorTexture": {
                    "index": 2
                },
                "metallicFactor": 0.0
            },
            "emissiveFactor": [
                0.0,
                0.0,
                0.0
            ],
            "name": "Stub-effect"
        }
    ],
    "textures": [
        {
            "sampler": 0,
            "source": 0
        },
        {
            "sampler": 0,
            "source": 1
        },
        {
            "sampler": 0,
            "source": 0
        }
    ],
    "images": [
        {
            "uri": "data:image/jpeg;base64,"
        },
        {
            "uri": "data:image/jpeg;base64,"
        }
    ],
    "samplers": [
        {
            "magFilter": 9729,
            "minFilter": 9986,
            "wrapS": 10497,
            "wrapT": 10497
        }
    ],
    "bufferViews": [
        {
            "buffer": 0,
            "byteOffset": 27712,
            "byteLength": 13248,
            "target": 34963
        },
        {
            "buffer": 0,
            "byteOffset": 0,
            "byteLength": 20784,
            "byteStride": 12,
            "target": 34962
        },
        {
            "buffer": 0,
            "byteOffset": 20784,
            "byteLength": 6928,
            "byteStride": 8,
            "target": 34962
        }
    ],
    "buffers": [
        {
            "byteLength": 40960,
            "uri": "data:application/octet-stream;base64,"
        }
    ]
}
